<svg width="120" height="46" viewBox="0 0 120 46" fill="none" xmlns="http://www.w3.org/2000/svg">
<path d="M7.6262 45.9407C7.46732 45.9802 7.28858 46 7.08998 46C6.89138 46 6.69278 46 6.49419 46C5.14371 46 3.85282 45.7628 2.62151 45.2883C1.39019 44.8138 0.575937 43.9043 0.178739 42.56C0.0595797 42.2041 0 41.8087 0 41.3737C0 40.3061 0.337618 39.3374 1.01285 38.4675C1.17173 38.3093 1.33061 38.2105 1.48949 38.1709C1.60865 38.0919 1.66823 38.1709 1.66823 38.4082C1.78739 40.3457 2.46263 41.7296 3.69394 42.56C4.96497 43.4299 6.45447 43.8648 8.16242 43.8648C9.79093 43.8648 11.4592 43.5287 13.1671 42.8565C14.9148 42.1843 16.4639 41.2749 17.8143 40.1282C19.562 38.5861 21.1706 36.8068 22.6403 34.7902C24.1496 32.7736 25.5795 30.7373 26.93 28.6812C27.4067 27.8903 27.9032 27.0995 28.4195 26.3087C28.9359 25.5179 29.4522 24.7469 29.9686 23.9956H15.1332C15.0538 23.9956 15.0141 23.956 15.0141 23.877C15.0141 23.6793 15.1531 23.442 15.4311 23.1652C15.7489 22.8489 16.0071 22.6907 16.2057 22.6907H30.8027C32.5504 20.1206 34.3576 17.6098 36.2244 15.1582C38.0913 12.6672 39.978 10.3936 41.8845 8.33745C44.228 5.88592 46.6708 3.92866 49.2128 2.46565C51.7946 0.963098 54.1182 0.152514 56.1836 0.0338931C57.2958 -0.0451897 58.2888 0.0141206 59.1626 0.211824C60.0762 0.369987 60.811 0.686314 61.3671 1.1608C61.8834 1.55621 62.2608 2.05047 62.4991 2.64358C62.7374 3.23669 62.8566 3.84957 62.8566 4.48223C62.8566 4.64039 62.8367 4.79855 62.797 4.95671C62.797 5.11488 62.7771 5.29281 62.7374 5.49052C62.6183 6.12317 62.3799 6.6372 62.0225 7.0326C61.8636 7.19077 61.7047 7.26985 61.5458 7.26985C61.2678 7.26985 61.2479 7.09191 61.4862 6.73605C61.8437 6.26156 62.0225 5.68822 62.0225 5.01603C62.0225 4.66016 61.9629 4.34383 61.8437 4.06705C61.5657 3.31577 61.0295 2.7622 60.2351 2.40634C59.4804 2.01093 58.5867 1.81322 57.554 1.81322C55.3297 1.81322 52.9862 2.60404 50.5236 4.18567C48.7362 5.33235 46.9091 6.87444 45.0422 8.81194C43.2151 10.7099 41.3682 12.8451 39.5013 15.2175C37.6742 17.59 35.8471 20.081 34.02 22.6907H42.7782C43.1357 21.979 43.4932 21.2673 43.8507 20.5555C44.2478 19.8438 44.645 19.1321 45.0422 18.4203C46.5119 15.7711 48.0212 13.2405 49.5703 10.8285C51.1591 8.37699 52.5691 6.16271 53.8005 4.18567C53.9196 3.98797 54.0388 3.88911 54.1579 3.88911C54.3168 3.88911 54.4161 3.9682 54.4558 4.12636C54.4956 4.28452 54.4558 4.42291 54.3367 4.54154C52.5096 7.30939 50.9009 10.2354 49.5107 13.3196C48.1602 16.4038 46.9289 19.5275 45.8168 22.6907H48.7362C48.8156 22.6907 48.8553 22.7303 48.8553 22.8094C48.8553 22.9675 48.6965 23.2048 48.3787 23.5211C48.1007 23.8374 47.8425 23.9956 47.6042 23.9956H45.3401C44.9827 25.0236 44.5457 26.4076 44.0294 28.1474C43.5527 29.8476 43.1158 31.6269 42.7186 33.4854C42.3612 35.3438 42.1824 37.044 42.1824 38.5861C42.1824 40.0096 42.4009 41.1167 42.8378 41.9075C43.3144 42.6983 44.0492 43.0938 45.0422 43.0938C45.1614 43.0938 45.2806 43.0938 45.3997 43.0938C45.5189 43.0938 45.638 43.074 45.7572 43.0344C46.4324 42.9158 47.1077 42.5402 47.7829 41.9075C48.4979 41.2749 49.193 40.5236 49.8682 39.6537C50.8215 38.4279 51.6953 37.1231 52.4897 35.7392C53.2841 34.3553 53.8799 33.2877 54.2771 32.5364C54.4757 32.2201 54.6346 32.0619 54.7537 32.0619C54.9126 32.0619 54.9921 32.2003 54.9921 32.4771C54.9921 32.6352 54.9325 32.8329 54.8133 33.0702C54.2572 34.0587 53.5423 35.3042 52.6684 36.8068C51.8343 38.2698 50.9009 39.6339 49.8682 40.8992C49.1135 41.7691 48.3191 42.5204 47.485 43.1531C46.6509 43.7857 45.7771 44.1811 44.8635 44.3393C44.6252 44.3788 44.3869 44.3986 44.1485 44.3986C43.9499 44.4381 43.7315 44.4579 43.4932 44.4579C42.3413 44.4579 41.3284 44.1218 40.4546 43.4496C39.5808 42.817 38.985 41.7296 38.6672 40.1875C38.5878 39.7526 38.5282 39.2978 38.4885 38.8234C38.4488 38.3489 38.4289 37.8941 38.4289 37.4592C38.4289 35.1658 38.8261 32.8527 39.6205 30.5198C40.4546 28.1869 41.3086 26.0122 42.1824 23.9956H33.0071C32.3716 24.8655 31.756 25.7749 31.1602 26.7239C30.5644 27.6333 29.9487 28.5428 29.3132 29.4522C28.1613 31.1129 26.7711 32.8725 25.1426 34.7309C23.5538 36.5498 21.8062 38.2896 19.8996 39.9503C17.9931 41.5714 15.9872 42.9356 13.8821 44.0427C11.8166 45.1499 9.73135 45.7825 7.6262 45.9407Z" fill="white"/>
<path d="M65.8141 40.662C65.1389 41.2156 64.4637 41.611 63.7884 41.8482C63.1529 42.125 62.5571 42.2634 62.001 42.2634C61.008 42.2634 60.1739 41.9273 59.4987 41.2551C58.8632 40.5434 58.5454 39.6142 58.5454 38.4675C58.5454 37.7953 58.7043 36.9847 59.0221 36.0357C59.5384 34.6123 60.313 33.2481 61.3457 31.9433C62.3784 30.6384 63.3714 29.3138 64.3247 27.9694C64.9204 27.1786 65.2183 26.4076 65.2183 25.6563C65.2183 25.2609 65.0992 24.9248 64.8609 24.648C64.6623 24.3712 64.2849 24.2131 63.7289 24.1735C63.4111 24.0944 63.0536 24.0549 62.6564 24.0549C62.2592 24.0549 61.862 24.0549 61.4648 24.0549H59.7966C59.5583 24.0549 59.3398 24.0549 59.1412 24.0549C58.9426 24.0549 58.7639 24.0351 58.605 23.9956C58.4461 24.9841 58.1085 26.0912 57.5921 27.317C57.1155 28.5428 56.5594 29.7685 55.9239 30.9943C55.2884 32.2201 54.6727 33.3272 54.077 34.3157C53.9181 34.553 53.779 34.6716 53.6599 34.6716C53.5407 34.6716 53.4811 34.553 53.4811 34.3157C53.4811 34.0389 53.5407 33.8215 53.6599 33.6633C54.494 32.0421 55.2884 30.4605 56.0431 28.9184C56.8375 27.3368 57.3737 25.6958 57.6517 23.9956C56.7382 23.4816 56.1225 22.5919 55.8048 21.3266C55.765 21.1289 55.7253 20.9509 55.6856 20.7928C55.6856 20.5951 55.6856 20.4171 55.6856 20.259C55.6856 19.5472 55.8246 18.9541 56.1027 18.4796C56.4204 17.9656 56.7779 17.7086 57.1751 17.7086C57.7312 17.7086 58.1879 18.2424 58.5454 19.31C58.6249 19.5868 58.6844 19.9031 58.7242 20.259C58.7639 20.5753 58.7837 20.8916 58.7837 21.208C58.7837 21.5638 58.7639 21.8999 58.7242 22.2162C58.7242 22.493 58.7043 22.7303 58.6646 22.928C58.9426 23.0071 59.3001 23.0664 59.737 23.1059C60.2136 23.1455 60.73 23.1652 61.2861 23.1652C62.1202 23.1652 62.994 23.1455 63.9076 23.1059C64.8211 23.0268 65.5957 22.9873 66.2312 22.9873C66.9859 22.9873 67.5022 23.1455 67.7803 23.4618C68.0583 23.7781 68.1973 24.1735 68.1973 24.648C68.1973 25.2411 68.0384 25.8935 67.7207 26.6053C67.4426 27.2775 67.1646 27.8508 66.8866 28.3253C66.3702 29.2743 65.8737 30.1244 65.3971 30.8757C64.9602 31.5874 64.4637 32.3584 63.9076 33.1888C63.0735 34.4541 62.4578 35.6206 62.0606 36.6882C61.7031 37.7162 61.5244 38.5861 61.5244 39.2978C61.5244 40.5236 61.9812 41.1365 62.8947 41.1365C63.6494 41.1365 64.6225 40.6027 65.8141 39.5351C66.5688 38.8629 67.2639 38.0721 67.8994 37.1626C68.5747 36.2137 69.1705 35.2647 69.6868 34.3157C70.2429 33.3272 70.6997 32.5166 71.0572 31.884C71.1366 31.7653 71.216 31.706 71.2955 31.706C71.4544 31.706 71.5338 31.8642 71.5338 32.1805C71.5338 32.4178 71.4742 32.6352 71.3551 32.8329C70.6798 34.0587 69.9053 35.4031 69.0314 36.8661C68.1576 38.3291 67.0852 39.5944 65.8141 40.662Z" fill="white"/>
<path d="M73.1047 42.1448C72.1117 42.1448 71.218 41.868 70.4236 41.3144C69.669 40.7213 69.2916 39.7723 69.2916 38.4675C69.2916 37.0836 69.6293 35.5612 70.3045 33.9005C70.9797 32.2398 71.6152 30.757 72.211 29.4522C72.5288 28.8196 72.9459 27.9694 73.4622 26.9018C74.0183 25.7947 74.6141 24.7073 75.2496 23.6397H72.4494C72.3302 23.6397 72.2706 23.5409 72.2706 23.3432C72.2706 23.185 72.3302 23.0268 72.4494 22.8687C72.5685 22.671 72.7075 22.5721 72.8664 22.5721C73.9786 22.5721 74.8127 22.4733 75.3688 22.2756C75.9248 22.0779 76.4015 21.8011 76.7987 21.4452C77.4342 20.8916 78.0499 20.1799 78.6456 19.31C79.2812 18.4401 79.8968 17.6888 80.4926 17.0562C80.9295 16.5026 81.4657 16.0874 82.1013 15.8106C82.7765 15.5339 83.2134 15.435 83.412 15.5141C83.2134 15.7909 82.8957 16.2654 82.4587 16.9376C82.0218 17.6098 81.5651 18.3413 81.0884 19.1321C80.6118 19.9229 80.1749 20.6544 79.7777 21.3266C79.3805 21.9988 79.1223 22.4535 79.0031 22.6907H82.9354C83.0545 22.6907 83.1141 22.7303 83.1141 22.8094C83.1141 22.9675 83.0148 23.1455 82.8162 23.3432C82.6573 23.5409 82.4985 23.6397 82.3396 23.6397H78.4669C77.752 24.8655 76.898 26.4669 75.905 28.4439C74.9517 30.3814 74.0977 32.2596 73.3431 34.0785C73.1842 34.4343 72.9061 35.1461 72.5089 36.2137C72.1515 37.2813 71.9727 38.2698 71.9727 39.1792C71.9727 39.7723 72.0919 40.2666 72.3302 40.662C72.6082 41.0574 73.065 41.2551 73.7005 41.2551C74.3758 41.2551 75.1106 41.0179 75.905 40.5434C76.6994 40.0294 77.315 39.5153 77.752 39.0013C78.6655 38.0128 79.4996 36.9254 80.2543 35.7392C81.009 34.553 81.7636 33.2877 82.5183 31.9433C82.6375 31.7851 82.7566 31.706 82.8758 31.706C83.0347 31.706 83.1141 31.8246 83.1141 32.0619C83.1141 32.2596 83.0744 32.4178 82.995 32.5364C82.28 33.8412 81.5055 35.1461 80.6714 36.4509C79.877 37.7558 78.9038 38.9815 77.752 40.1282C77.2356 40.6422 76.5405 41.1167 75.6667 41.5517C74.7928 41.9471 73.9389 42.1448 73.1047 42.1448Z" fill="white"/>
<path d="M87.9033 42.2041C85.5996 42.2041 83.971 41.611 83.0178 40.4248C82.5411 39.9107 82.2035 39.2978 82.0049 38.5861C81.8063 37.8744 81.707 37.1429 81.707 36.3916C81.707 35.4426 81.8262 34.4936 82.0645 33.5447C82.3028 32.5562 82.6007 31.6467 82.9582 30.8164C83.5143 29.5115 84.2491 28.2067 85.1626 26.9018C86.0762 25.5574 87.1685 24.4305 88.4395 23.5211C89.7503 22.6117 91.1802 22.1569 92.7293 22.1569C93.762 22.1569 94.5762 22.4139 95.172 22.928C95.7678 23.442 96.0657 24.2328 96.0657 25.3004C96.0657 26.5262 95.6884 27.7717 94.9337 29.037C94.179 30.2628 93.2258 31.2908 92.0739 32.1212C90.922 32.9516 89.7304 33.3667 88.4991 33.3667C87.3869 33.3667 86.4138 32.9713 85.5797 32.1805C85.3414 32.8132 85.1428 33.5249 84.9839 34.3157C84.825 35.067 84.7456 35.838 84.7456 36.6288C84.7456 37.8546 84.9839 38.9222 85.4605 39.8316C85.9769 40.7411 86.8905 41.1958 88.2012 41.1958C89.1545 41.1958 90.068 40.9586 90.9419 40.4841C91.8554 39.97 92.6697 39.3572 93.3846 38.6454C94.179 37.8151 94.9337 36.9254 95.6487 35.9764C96.3636 35.0274 97.0587 33.9203 97.734 32.655C97.8134 32.5364 97.873 32.4771 97.9127 32.4771C98.0716 32.4771 98.151 32.655 98.151 33.0109C98.151 33.2481 98.0716 33.5051 97.9127 33.7819C97.3169 34.8495 96.6218 35.9369 95.8274 37.044C95.033 38.1116 94.2188 39.0408 93.3846 39.8316C92.63 40.5434 91.8157 41.1167 90.9419 41.5517C90.068 41.9866 89.0552 42.2041 87.9033 42.2041ZM85.8776 31.2908C86.1556 31.6863 86.4734 31.9828 86.8309 32.1805C87.2281 32.3387 87.6253 32.4178 88.0225 32.4178C88.9757 32.4178 89.9687 32.0619 91.0015 31.3502C92.0342 30.5989 92.8683 29.729 93.5038 28.7405C93.7818 28.3055 94.0202 27.7322 94.2188 27.0204C94.4571 26.3087 94.5762 25.6365 94.5762 25.0039C94.5762 24.4503 94.4571 23.9758 94.2188 23.5804C94.0202 23.1455 93.6031 22.928 92.9676 22.928C92.2526 22.928 91.3987 23.3629 90.4057 24.2328C89.4524 25.1027 88.5388 26.2296 87.665 27.6136C87.387 28.088 87.0692 28.6416 86.7117 29.2743C86.394 29.9069 86.1159 30.5791 85.8776 31.2908Z" fill="white"/>
<path d="M110.467 42.1448C109.196 42.1448 108.203 41.8482 107.488 41.2551C106.813 40.6225 106.317 39.8514 105.999 38.942C105.681 38.0325 105.482 37.1033 105.403 36.1544C105.363 35.2054 105.343 34.3948 105.343 33.7226C104.668 34.5134 103.913 35.4229 103.079 36.4509C102.285 37.479 101.53 38.4675 100.815 39.4165C100.14 40.3259 99.6039 41.097 99.2067 41.7296H96.2873C96.8434 41.3342 97.6179 40.6422 98.6109 39.6537C99.6436 38.6257 100.756 37.4987 101.947 36.273C103.139 35.0077 104.271 33.8215 105.343 32.7143L105.701 28.1474C105.741 27.9497 105.76 27.6531 105.76 27.2577C105.8 26.8227 105.82 26.368 105.82 25.8935C105.82 25.6167 105.82 25.34 105.82 25.0632C105.82 24.7864 105.78 24.5294 105.701 24.2921C105.582 23.5804 105.244 23.2245 104.688 23.2245C104.291 23.2245 103.953 23.4222 103.675 23.8176C103.238 24.3712 102.781 25.0236 102.305 25.7749C101.868 26.5262 101.57 27.0402 101.411 27.317L98.0747 33.5447C97.9158 33.9005 97.7569 34.0785 97.598 34.0785C97.4789 34.0785 97.4193 33.9598 97.4193 33.7226C97.4193 33.4458 97.5186 33.1097 97.7172 32.7143C98.2733 31.6863 98.7499 30.757 99.1471 29.9267C99.5443 29.0963 100.021 28.1671 100.577 27.1391C101.093 26.2296 101.57 25.3795 102.007 24.5887C102.484 23.7583 103.04 23.1059 103.675 22.6314C104.35 22.1174 105.185 21.8604 106.178 21.8604C107.29 21.8604 108.044 22.2558 108.442 23.0466C108.839 23.7979 109.037 24.7073 109.037 25.7749C109.037 26.5262 109.017 27.317 108.978 28.1474C108.978 28.9382 108.938 29.6104 108.859 30.1639C109.891 28.9777 110.964 27.6531 112.076 26.1901C113.188 24.7271 114.042 23.5606 114.638 22.6907H117.498C117.021 23.0466 116.286 23.7188 115.293 24.7073C114.3 25.6958 113.228 26.803 112.076 28.0287C110.924 29.215 109.812 30.3616 108.739 31.4688C108.7 31.9828 108.66 32.5166 108.62 33.0702C108.62 33.5842 108.62 34.118 108.62 34.6716C108.62 35.7787 108.68 36.8463 108.799 37.8744C108.918 38.5466 109.137 39.2583 109.454 40.0096C109.812 40.7213 110.388 41.097 111.182 41.1365C111.738 41.1365 112.334 40.8992 112.97 40.4248C113.645 39.9107 114.181 39.4362 114.578 39.0013C115.492 38.0128 116.326 36.9452 117.081 35.7985C117.835 34.6123 118.59 33.3272 119.345 31.9433C119.464 31.706 119.603 31.5874 119.762 31.5874C119.921 31.5874 120 31.706 120 31.9433C120 32.141 119.921 32.398 119.762 32.7143C119.047 34.0192 118.292 35.3042 117.498 36.5695C116.703 37.7953 115.73 38.9815 114.578 40.1282C113.307 41.4726 111.937 42.1448 110.467 42.1448Z" fill="white"/>
</svg>
