<svg width="136" height="55" viewBox="0 0 136 55" fill="none" xmlns="http://www.w3.org/2000/svg">
<g filter="url(#filter0_d_98_64)">
<path d="M9.58413 52.1294C9.40937 52.1732 9.21275 52.1952 8.99429 52.1952C8.77584 52.1952 8.55738 52.1952 8.33892 52.1952C6.8534 52.1952 5.43341 51.9321 4.07897 51.4061C2.72452 50.88 1.82884 49.8717 1.39193 48.3812C1.26085 47.9867 1.19531 47.5483 1.19531 47.066C1.19531 45.8824 1.56669 44.8084 2.30945 43.8439C2.48422 43.6685 2.65899 43.559 2.83375 43.5151C2.96483 43.4274 3.03037 43.5151 3.03037 43.7781C3.16144 45.9262 3.9042 47.4606 5.25865 48.3812C6.65678 49.3457 8.29522 49.8279 10.174 49.8279C11.9653 49.8279 13.8004 49.4552 15.6791 48.71C17.6016 47.9647 19.3056 46.9564 20.7911 45.6851C22.7135 43.9754 24.483 42.0027 26.0996 39.7669C27.7599 37.5311 29.3328 35.2734 30.8183 32.9938C31.3426 32.1171 31.8888 31.2403 32.4568 30.3635C33.0248 29.4867 33.5928 28.6319 34.1608 27.799H17.8419C17.7545 27.799 17.7108 27.7551 17.7108 27.6674C17.7108 27.4482 17.8637 27.1852 18.1696 26.8783C18.5191 26.5276 18.8031 26.3523 19.0216 26.3523H35.0783C37.0007 23.5028 38.9887 20.719 41.0422 18.001C43.0957 15.2392 45.1711 12.7185 47.2683 10.4389C49.8461 7.72086 52.5331 5.55085 55.3294 3.92882C58.1694 2.26295 60.7253 1.36426 62.9973 1.23274C64.2207 1.14507 65.313 1.21082 66.2742 1.43002C67.2791 1.60537 68.0874 1.95608 68.6991 2.48215C69.2671 2.92053 69.6822 3.46851 69.9443 4.12609C70.2065 4.78367 70.3375 5.46317 70.3375 6.16459C70.3375 6.33995 70.3157 6.5153 70.272 6.69066C70.272 6.86601 70.2502 7.06328 70.2065 7.28248C70.0754 7.98389 69.8132 8.5538 69.42 8.99218C69.2452 9.16754 69.0705 9.25521 68.8957 9.25521C68.5899 9.25521 68.568 9.05794 68.8302 8.66339C69.2234 8.13733 69.42 7.50167 69.42 6.75641C69.42 6.36187 69.3545 6.01115 69.2234 5.70428C68.9176 4.87135 68.3277 4.25761 67.4539 3.86306C66.6237 3.42467 65.6407 3.20548 64.5047 3.20548C62.058 3.20548 59.4801 4.08225 56.7712 5.8358C54.8051 7.10712 52.7953 8.81683 50.7418 10.9649C48.732 13.0692 46.7003 15.4365 44.6468 18.0668C42.637 20.6971 40.6271 23.4589 38.6173 26.3523H48.2513C48.6446 25.5632 49.0378 24.7741 49.431 23.985C49.8679 23.1959 50.3049 22.4068 50.7418 21.6177C52.3584 18.6805 54.0187 15.8749 55.7226 13.2007C57.4703 10.4827 59.0214 8.02773 60.3758 5.8358C60.5069 5.61661 60.638 5.50701 60.769 5.50701C60.9438 5.50701 61.053 5.59469 61.0967 5.77004C61.1404 5.9454 61.0967 6.09883 60.9657 6.23035C58.9558 9.29905 57.1863 12.5431 55.6571 15.9625C54.1716 19.3819 52.8171 22.8452 51.5938 26.3523H54.8051C54.8925 26.3523 54.9362 26.3961 54.9362 26.4838C54.9362 26.6592 54.7614 26.9222 54.4119 27.2729C54.106 27.6236 53.8221 27.799 53.5599 27.799H51.0695C50.6762 28.9388 50.1956 30.4731 49.6276 32.402C49.1033 34.2871 48.6227 36.2598 48.1858 38.3202C47.7926 40.3807 47.596 42.2657 47.596 43.9754C47.596 45.5536 47.8363 46.7811 48.3169 47.6579C48.8412 48.5346 49.6495 48.973 50.7418 48.973C50.8729 48.973 51.0039 48.973 51.135 48.973C51.2661 48.973 51.3972 48.9511 51.5282 48.9073C52.271 48.7758 53.0138 48.3593 53.7565 47.6579C54.543 46.9564 55.3076 46.1235 56.0503 45.1591C57.0989 43.8001 58.0602 42.3534 58.934 40.819C59.8078 39.2847 60.4632 38.101 60.9001 37.2681C61.1186 36.9174 61.2933 36.742 61.4244 36.742C61.5992 36.742 61.6866 36.8955 61.6866 37.2024C61.6866 37.3777 61.621 37.5969 61.49 37.8599C60.8783 38.9559 60.0918 40.3368 59.1306 42.0027C58.2131 43.6247 57.1863 45.1371 56.0503 46.54C55.2202 47.5044 54.3464 48.3374 53.4288 49.0388C52.5113 49.7402 51.5501 50.1786 50.5452 50.3539C50.283 50.3978 50.0209 50.4197 49.7587 50.4197C49.5403 50.4635 49.2999 50.4855 49.0378 50.4855C47.7707 50.4855 46.6566 50.1128 45.6954 49.3676C44.7342 48.6662 44.0788 47.4606 43.7293 45.7509C43.6419 45.2687 43.5763 44.7645 43.5326 44.2384C43.4889 43.7124 43.4671 43.2082 43.4671 42.726C43.4671 40.1834 43.904 37.6188 44.7779 35.0323C45.6954 32.4459 46.6348 30.0347 47.596 27.799H37.5032C36.8041 28.7634 36.1269 29.7717 35.4715 30.8238C34.8161 31.8321 34.1389 32.8404 33.4398 33.8487C32.1728 35.6899 30.6436 37.6407 28.8522 39.7012C27.1045 41.7177 25.1821 43.6466 23.0849 45.4879C20.9877 47.2852 18.7812 48.7977 16.4656 50.0252C14.1936 51.2526 11.8998 51.9541 9.58413 52.1294Z" fill="url(#paint0_linear_98_64)"/>
<path d="M73.5909 46.2769C72.8481 46.8907 72.1053 47.3291 71.3626 47.5921C70.6635 47.899 70.0081 48.0524 69.3965 48.0524C68.3042 48.0524 67.3866 47.6798 66.6439 46.9345C65.9448 46.1454 65.5953 45.1152 65.5953 43.8439C65.5953 43.0986 65.77 42.2 66.1196 41.1478C66.6876 39.5696 67.5396 38.0572 68.6755 36.6105C69.8115 35.1639 70.9038 33.6953 71.9524 32.2047C72.6078 31.328 72.9355 30.4731 72.9355 29.6402C72.9355 29.2018 72.8044 28.8292 72.5423 28.5223C72.3238 28.2154 71.9087 28.0401 71.2971 27.9962C70.9475 27.9086 70.5543 27.8647 70.1174 27.8647C69.6805 27.8647 69.2435 27.8647 68.8066 27.8647H66.9716C66.7094 27.8647 66.4691 27.8647 66.2506 27.8647C66.0322 27.8647 65.8356 27.8428 65.6608 27.799C65.486 28.8949 65.1147 30.1224 64.5467 31.4814C64.0224 32.8404 63.4107 34.1994 62.7116 35.5584C62.0126 36.9174 61.3353 38.1449 60.68 39.2408C60.5052 39.5039 60.3523 39.6354 60.2212 39.6354C60.0901 39.6354 60.0246 39.5039 60.0246 39.2408C60.0246 38.934 60.0901 38.6929 60.2212 38.5175C61.1387 36.7201 62.0125 34.9666 62.8427 33.2569C63.7165 31.5033 64.3064 29.684 64.6122 27.799C63.6073 27.2291 62.9301 26.2427 62.5805 24.8399C62.5368 24.6207 62.4932 24.4234 62.4495 24.248C62.4495 24.0288 62.4495 23.8316 62.4495 23.6562C62.4495 22.8671 62.6024 22.2095 62.9082 21.6835C63.2578 21.1136 63.651 20.8286 64.0879 20.8286C64.6996 20.8286 65.202 21.4204 65.5953 22.6041C65.6827 22.911 65.7482 23.2617 65.7919 23.6562C65.8356 24.0069 65.8574 24.3576 65.8574 24.7083C65.8574 25.1029 65.8356 25.4755 65.7919 25.8262C65.7919 26.1331 65.77 26.3961 65.7263 26.6153C66.0322 26.703 66.4254 26.7688 66.906 26.8126C67.4303 26.8564 67.9983 26.8783 68.61 26.8783C69.5275 26.8783 70.4888 26.8564 71.4937 26.8126C72.4986 26.7249 73.3506 26.6811 74.0496 26.6811C74.8798 26.6811 75.4478 26.8564 75.7536 27.2071C76.0595 27.5578 76.2124 27.9962 76.2124 28.5223C76.2124 29.1799 76.0376 29.9032 75.6881 30.6923C75.3822 31.4376 75.0764 32.0732 74.7705 32.5993C74.2026 33.6514 73.6564 34.594 73.1321 35.4269C72.6515 36.216 72.1053 37.0708 71.4937 37.9914C70.5761 39.3943 69.8989 40.6875 69.462 41.8712C69.0688 43.011 68.8722 43.9754 68.8722 44.7645C68.8722 46.1235 69.3746 46.803 70.3795 46.803C71.2097 46.803 72.2801 46.2112 73.5909 45.0275C74.421 44.2823 75.1856 43.4055 75.8847 42.3972C76.6274 41.3451 77.2828 40.293 77.8508 39.2408C78.4625 38.1449 78.965 37.2462 79.3582 36.5448C79.4456 36.4133 79.533 36.3475 79.6203 36.3475C79.7951 36.3475 79.8825 36.5229 79.8825 36.8736C79.8825 37.1366 79.8169 37.3777 79.6859 37.5969C78.9431 38.9559 78.0911 40.4464 77.1299 42.0684C76.1687 43.6905 74.989 45.0933 73.5909 46.2769Z" fill="url(#paint1_linear_98_64)"/>
<path d="M81.6105 47.9209C80.5182 47.9209 79.5352 47.614 78.6613 47.0003C77.8312 46.3427 77.4161 45.2906 77.4161 43.8439C77.4161 42.3096 77.7875 40.6218 78.5303 38.7805C79.273 36.9393 79.9721 35.2954 80.6275 33.8487C80.977 33.1473 81.4358 32.2047 82.0037 31.0211C82.6154 29.7936 83.2708 28.5881 83.9699 27.4044H80.8896C80.7585 27.4044 80.693 27.2948 80.693 27.0756C80.693 26.9003 80.7585 26.7249 80.8896 26.5496C81.0207 26.3304 81.1736 26.2208 81.3484 26.2208C82.5717 26.2208 83.4893 26.1112 84.101 25.892C84.7126 25.6728 85.2369 25.3659 85.6739 24.9714C86.3729 24.3576 87.0501 23.5685 87.7055 22.6041C88.4046 21.6396 89.0818 20.8067 89.7372 20.1053C90.2178 19.4915 90.8076 19.0312 91.5067 18.7244C92.2495 18.4175 92.7301 18.3079 92.9485 18.3956C92.7301 18.7024 92.3805 19.2285 91.8999 19.9738C91.4193 20.719 90.9169 21.53 90.3926 22.4068C89.8683 23.2836 89.3877 24.0946 88.9507 24.8399C88.5138 25.5851 88.2298 26.0893 88.0987 26.3523H92.4242C92.5553 26.3523 92.6208 26.3961 92.6208 26.4838C92.6208 26.6592 92.5116 26.8564 92.2932 27.0756C92.1184 27.2948 91.9436 27.4044 91.7689 27.4044H87.5089C86.7225 28.7634 85.7831 30.5389 84.6908 32.7308C83.6422 34.8789 82.7028 36.9612 81.8727 38.9778C81.6979 39.3724 81.3921 40.1615 80.9551 41.3451C80.5619 42.5287 80.3653 43.6247 80.3653 44.633C80.3653 45.2906 80.4964 45.8386 80.7585 46.2769C81.0644 46.7153 81.5668 46.9345 82.2659 46.9345C83.0087 46.9345 83.8169 46.6715 84.6908 46.1454C85.5646 45.5755 86.2419 45.0056 86.7225 44.4357C87.7274 43.3398 88.6449 42.1342 89.475 40.819C90.3052 39.5039 91.1353 38.101 91.9655 36.6105C92.0965 36.4352 92.2276 36.3475 92.3587 36.3475C92.5335 36.3475 92.6208 36.479 92.6208 36.742C92.6208 36.9612 92.5772 37.1366 92.4898 37.2681C91.7033 38.7148 90.8513 40.1615 89.9338 41.6081C89.06 43.0548 87.9895 44.4138 86.7225 45.6851C86.1545 46.255 85.3899 46.7811 84.4286 47.2633C83.4674 47.7017 82.5281 47.9209 81.6105 47.9209Z" fill="url(#paint2_linear_98_64)"/>
<path d="M97.8889 47.9867C95.3548 47.9867 93.5635 47.3291 92.5149 46.0139C91.9906 45.444 91.6192 44.7645 91.4007 43.9754C91.1823 43.1863 91.073 42.3753 91.073 41.5424C91.073 40.4902 91.2041 39.4381 91.4663 38.386C91.7284 37.29 92.0561 36.2817 92.4493 35.3611C93.061 33.9145 93.8693 32.4678 94.8742 31.0211C95.8791 29.5306 97.0807 28.2812 98.4788 27.2729C99.9206 26.2646 101.494 25.7605 103.198 25.7605C104.333 25.7605 105.229 26.0454 105.885 26.6153C106.54 27.1852 106.868 28.062 106.868 29.2456C106.868 30.6046 106.453 31.9856 105.622 33.3884C104.792 34.7474 103.744 35.8872 102.477 36.8078C101.21 37.7284 99.8988 38.1887 98.5443 38.1887C97.321 38.1887 96.2505 37.7503 95.333 36.8736C95.0708 37.575 94.8524 38.3641 94.6776 39.2408C94.5028 40.0738 94.4155 40.9286 94.4155 41.8054C94.4155 43.1644 94.6776 44.348 95.2019 45.3563C95.7699 46.3646 96.7748 46.8688 98.2166 46.8688C99.2652 46.8688 100.27 46.6057 101.231 46.0797C102.236 45.5098 103.132 44.8303 103.918 44.0412C104.792 43.1206 105.622 42.1342 106.409 41.0821C107.195 40.0299 107.96 38.8025 108.703 37.3996C108.79 37.2681 108.856 37.2024 108.899 37.2024C109.074 37.2024 109.161 37.3996 109.161 37.7942C109.161 38.0572 109.074 38.3422 108.899 38.649C108.244 39.8327 107.479 41.0382 106.605 42.2657C105.732 43.4494 104.836 44.4796 103.918 45.3563C103.088 46.1454 102.193 46.7811 101.231 47.2633C100.27 47.7455 99.156 47.9867 97.8889 47.9867ZM95.6607 35.8872C95.9665 36.3256 96.316 36.6544 96.7093 36.8736C97.1462 37.0489 97.5831 37.1366 98.02 37.1366C99.0686 37.1366 100.161 36.742 101.297 35.9529C102.433 35.12 103.35 34.1556 104.049 33.0596C104.355 32.5774 104.617 31.9417 104.836 31.1526C105.098 30.3635 105.229 29.6183 105.229 28.9168C105.229 28.3031 105.098 27.777 104.836 27.3387C104.617 26.8564 104.159 26.6153 103.46 26.6153C102.673 26.6153 101.734 27.0975 100.642 28.062C99.5929 29.0264 98.588 30.2758 97.6268 31.8102C97.321 32.3363 96.9714 32.95 96.5782 33.6514C96.2287 34.3528 95.9228 35.0981 95.6607 35.8872Z" fill="url(#paint3_linear_98_64)"/>
<path d="M122.709 47.9209C121.311 47.9209 120.219 47.5921 119.432 46.9345C118.69 46.2331 118.144 45.3783 117.794 44.37C117.444 43.3617 117.226 42.3315 117.139 41.2793C117.095 40.2272 117.073 39.3285 117.073 38.5833C116.33 39.46 115.5 40.4683 114.583 41.6081C113.709 42.7479 112.879 43.8439 112.092 44.896C111.349 45.9043 110.76 46.7592 110.323 47.4606H107.111C107.723 47.0222 108.575 46.255 109.667 45.1591C110.803 44.0193 112.027 42.7699 113.337 41.4109C114.648 40.008 115.893 38.6929 117.073 37.4654L117.466 32.402C117.51 32.1828 117.532 31.854 117.532 31.4156C117.576 30.9334 117.597 30.4293 117.597 29.9032C117.597 29.5963 117.597 29.2895 117.597 28.9826C117.597 28.6757 117.554 28.3908 117.466 28.1278C117.335 27.3387 116.964 26.9441 116.352 26.9441C115.915 26.9441 115.544 27.1633 115.238 27.6017C114.757 28.2154 114.255 28.9388 113.731 29.7717C113.25 30.6046 112.922 31.1745 112.748 31.4814L109.077 38.386C108.903 38.7805 108.728 38.9778 108.553 38.9778C108.422 38.9778 108.357 38.8463 108.357 38.5833C108.357 38.2764 108.466 37.9038 108.684 37.4654C109.296 36.3256 109.82 35.2954 110.257 34.3748C110.694 33.4541 111.218 32.4239 111.83 31.2841C112.398 30.2758 112.922 29.3333 113.403 28.4565C113.927 27.5359 114.539 26.8126 115.238 26.2865C115.981 25.7166 116.898 25.4317 117.991 25.4317C119.214 25.4317 120.044 25.8701 120.481 26.7468C120.918 27.5798 121.136 28.5881 121.136 29.7717C121.136 30.6046 121.115 31.4814 121.071 32.402C121.071 33.2788 121.027 34.0241 120.94 34.6378C122.076 33.3226 123.255 31.854 124.479 30.232C125.702 28.61 126.642 27.3167 127.297 26.3523H130.443C129.918 26.7468 129.11 27.4921 128.018 28.5881C126.926 29.684 125.746 30.9115 124.479 32.2705C123.212 33.5857 121.988 34.857 120.809 36.0845C120.765 36.6544 120.721 37.2462 120.678 37.8599C120.678 38.4298 120.678 39.0217 120.678 39.6354C120.678 40.8629 120.743 42.0465 120.874 43.1863C121.005 43.9316 121.246 44.7207 121.595 45.5536C121.988 46.3427 122.622 46.7592 123.496 46.803C124.107 46.803 124.763 46.54 125.462 46.0139C126.205 45.444 126.794 44.918 127.231 44.4357C128.236 43.3398 129.154 42.1561 129.984 40.8848C130.814 39.5696 131.644 38.1449 132.474 36.6105C132.605 36.3475 132.758 36.216 132.933 36.216C133.108 36.216 133.195 36.3475 133.195 36.6105C133.195 36.8297 133.108 37.1147 132.933 37.4654C132.147 38.9121 131.317 40.3368 130.443 41.7397C129.569 43.0986 128.498 44.4138 127.231 45.6851C125.833 47.1756 124.326 47.9209 122.709 47.9209Z" fill="url(#paint4_linear_98_64)"/>
</g>
<defs>
<filter id="filter0_d_98_64" x="0.000145346" y="3.8743e-07" width="135.161" height="54.1614" filterUnits="userSpaceOnUse" color-interpolation-filters="sRGB">
<feFlood flood-opacity="0" result="BackgroundImageFix"/>
<feColorMatrix in="SourceAlpha" type="matrix" values="0 0 0 0 0 0 0 0 0 0 0 0 0 0 0 0 0 0 127 0" result="hardAlpha"/>
<feOffset dx="0.385538" dy="0.385538"/>
<feGaussianBlur stdDeviation="0.790352"/>
<feComposite in2="hardAlpha" operator="out"/>
<feColorMatrix type="matrix" values="0 0 0 0 0.538462 0 0 0 0 0.394872 0 0 0 0 0 0 0 0 0.71 0"/>
<feBlend mode="normal" in2="BackgroundImageFix" result="effect1_dropShadow_98_64"/>
<feBlend mode="normal" in="SourceGraphic" in2="effect1_dropShadow_98_64" result="shape"/>
</filter>
<linearGradient id="paint0_linear_98_64" x1="-172.503" y1="-141.763" x2="290.685" y2="152.784" gradientUnits="userSpaceOnUse">
<stop offset="0.206401" stop-color="#926320"/>
<stop offset="0.293551" stop-color="#FFF2C5"/>
<stop offset="0.38245" stop-color="#C28D43"/>
<stop offset="0.495192" stop-color="#FFF9B8"/>
<stop offset="0.567308" stop-color="#AA701D"/>
<stop offset="0.611778" stop-color="#FFF7C9"/>
<stop offset="0.680903" stop-color="#C78E3F"/>
<stop offset="0.740385" stop-color="#FFEFB1"/>
<stop offset="0.805167" stop-color="#CF9B53"/>
<stop offset="0.867407" stop-color="#FFF6D4"/>
<stop offset="0.924037" stop-color="#C89042"/>
</linearGradient>
<linearGradient id="paint1_linear_98_64" x1="-172.503" y1="-141.763" x2="290.685" y2="152.784" gradientUnits="userSpaceOnUse">
<stop offset="0.206401" stop-color="#926320"/>
<stop offset="0.293551" stop-color="#FFF2C5"/>
<stop offset="0.38245" stop-color="#C28D43"/>
<stop offset="0.495192" stop-color="#FFF9B8"/>
<stop offset="0.567308" stop-color="#AA701D"/>
<stop offset="0.611778" stop-color="#FFF7C9"/>
<stop offset="0.680903" stop-color="#C78E3F"/>
<stop offset="0.740385" stop-color="#FFEFB1"/>
<stop offset="0.805167" stop-color="#CF9B53"/>
<stop offset="0.867407" stop-color="#FFF6D4"/>
<stop offset="0.924037" stop-color="#C89042"/>
</linearGradient>
<linearGradient id="paint2_linear_98_64" x1="-172.503" y1="-141.763" x2="290.685" y2="152.784" gradientUnits="userSpaceOnUse">
<stop offset="0.206401" stop-color="#926320"/>
<stop offset="0.293551" stop-color="#FFF2C5"/>
<stop offset="0.38245" stop-color="#C28D43"/>
<stop offset="0.495192" stop-color="#FFF9B8"/>
<stop offset="0.567308" stop-color="#AA701D"/>
<stop offset="0.611778" stop-color="#FFF7C9"/>
<stop offset="0.680903" stop-color="#C78E3F"/>
<stop offset="0.740385" stop-color="#FFEFB1"/>
<stop offset="0.805167" stop-color="#CF9B53"/>
<stop offset="0.867407" stop-color="#FFF6D4"/>
<stop offset="0.924037" stop-color="#C89042"/>
</linearGradient>
<linearGradient id="paint3_linear_98_64" x1="-172.503" y1="-141.763" x2="290.685" y2="152.784" gradientUnits="userSpaceOnUse">
<stop offset="0.206401" stop-color="#926320"/>
<stop offset="0.293551" stop-color="#FFF2C5"/>
<stop offset="0.38245" stop-color="#C28D43"/>
<stop offset="0.495192" stop-color="#FFF9B8"/>
<stop offset="0.567308" stop-color="#AA701D"/>
<stop offset="0.611778" stop-color="#FFF7C9"/>
<stop offset="0.680903" stop-color="#C78E3F"/>
<stop offset="0.740385" stop-color="#FFEFB1"/>
<stop offset="0.805167" stop-color="#CF9B53"/>
<stop offset="0.867407" stop-color="#FFF6D4"/>
<stop offset="0.924037" stop-color="#C89042"/>
</linearGradient>
<linearGradient id="paint4_linear_98_64" x1="-172.503" y1="-141.763" x2="290.685" y2="152.784" gradientUnits="userSpaceOnUse">
<stop offset="0.206401" stop-color="#926320"/>
<stop offset="0.293551" stop-color="#FFF2C5"/>
<stop offset="0.38245" stop-color="#C28D43"/>
<stop offset="0.495192" stop-color="#FFF9B8"/>
<stop offset="0.567308" stop-color="#AA701D"/>
<stop offset="0.611778" stop-color="#FFF7C9"/>
<stop offset="0.680903" stop-color="#C78E3F"/>
<stop offset="0.740385" stop-color="#FFEFB1"/>
<stop offset="0.805167" stop-color="#CF9B53"/>
<stop offset="0.867407" stop-color="#FFF6D4"/>
<stop offset="0.924037" stop-color="#C89042"/>
</linearGradient>
</defs>
</svg>
