<svg width="22" height="22" viewBox="0 0 22 22" fill="none" xmlns="http://www.w3.org/2000/svg">
<path d="M9 19C9 17.9 8.1 17 7 17C5.9 17 5.00977 17.9 5.00977 19C5.00977 20.1 5.9 21 7 21C8.1 21 9 20.1 9 19ZM19 19C19 17.9 18.1 17 17 17C15.9 17 15.0098 17.9 15.0098 19C15.0098 20.1 15.9 21 17 21C18.1 21 19 20.1 19 19ZM20 19C20 20.6523 18.6523 22 17 22C15.3412 22 14.0098 20.6457 14.0098 19C14.0098 18.2336 14.3013 17.5327 14.7773 17H9.22754C9.70557 17.5317 10 18.2316 10 19C10 20.6523 8.65228 22 7 22C5.3412 22 4.00977 20.6457 4.00977 19C4.00977 17.9616 4.54076 17.0403 5.34863 16.501C4.53739 15.963 4 15.0427 4 14C4 13.4841 4.13139 12.9878 4.37402 12.5576L5.47656 10.5557L2.36719 4H1C0.447715 4 0 3.55228 0 3V1C0 0.447715 0.447715 0 1 0H4.26953L4.41309 0.0107422C4.7424 0.0583062 5.03047 0.26749 5.1748 0.574219L5.8457 2H20V3H5.20996L4.26953 1H1V3H3L6.59961 10.5898L5.25 13.04C5.09001 13.32 5 13.65 5 14C5 15.1 5.9 16 7 16H19V14H7.41992C7.27996 14 7.16992 13.89 7.16992 13.75L7.2002 13.6299L8.09961 12H15.5498C16.2998 12 16.9598 11.5897 17.2998 10.9697L20.8799 4.48047C20.9599 4.34047 21 4.17 21 4C21 3.45 20.55 3 20 3V2C21.1023 2 22 2.89772 22 4C22 4.31342 21.9277 4.65333 21.7549 4.96191L21.7559 4.96289L18.1758 11.4531C17.6628 12.3866 16.6702 13 15.5498 13H19C19.5523 13 20 13.4477 20 14V16C20 16.4812 19.6599 16.8821 19.207 16.9775C19.6972 17.5119 20 18.2207 20 19Z" fill="#004246"/>
</svg>
